<svg width="512" height="512" viewBox="0 0 512 512" fill="none" xmlns="http://www.w3.org/2000/svg">
<rect width="512" height="512" rx="84" fill="#2ED15C"/>
<path d="M308.379 388.3C299.838 388.3 293.195 381.182 293.195 373.116C293.195 364.575 299.838 357.932 308.379 357.932H340.171L339.696 356.983C325.461 332.783 304.108 313.328 279.434 300.991C254.76 289.128 226.764 283.909 198.294 287.705C190.227 289.128 182.635 282.96 181.211 274.893C180.262 266.826 185.956 259.234 194.497 257.811C201.773 256.862 209.207 256.387 216.799 256.387C217.432 256.387 218.065 256.387 218.697 256.387H226.289C240.525 256.387 253.336 250.693 262.352 241.203C271.842 232.187 277.536 219.376 277.536 205.141C277.536 191.38 271.842 178.568 262.352 169.078C253.336 160.062 240.525 154.368 226.289 154.368H135.184C127.118 154.368 120 147.251 120 139.184C120 130.643 127.118 124 135.184 124H226.289C248.591 124 268.995 133.016 283.705 147.725C298.414 162.435 307.905 182.839 307.905 205.141C307.905 227.442 298.414 247.846 283.705 262.556C282.123 264.454 280.225 266.194 278.011 267.775C283.072 269.673 287.975 271.73 292.72 273.944C320.716 288.179 345.391 309.532 362.473 337.053V303.363C362.473 295.297 369.59 288.179 377.657 288.179C386.198 288.179 392.841 295.297 392.841 303.363V373.116C392.841 381.182 386.198 388.3 377.657 388.3H308.379Z" fill="white"/>
</svg>
