<svg width="77" height="77" viewBox="0 0 77 77" fill="none" xmlns="http://www.w3.org/2000/svg">
<path d="M0.5 0.199997H77V76.6H0.5V0.199997Z" fill="#2ED15C"/>
<path d="M49.7 66.2999C47.9 66.2999 46.5 64.7999 46.5 63.0999C46.5 61.2999 47.9 59.8999 49.7 59.8999H56.4L56.3 59.6999C53.3 54.5999 48.8 50.4999 43.6 47.8999C38.4 45.3999 32.5 44.2999 26.5 45.0999C24.8 45.3999 23.2 44.0999 22.9 42.3999C22.7 40.6999 23.9 39.0999 25.7 38.7999C27.2333 38.5999 28.8 38.4999 30.4 38.4999C30.5333 38.4999 30.6667 38.4999 30.8 38.4999H32.4C35.4 38.4999 38.1 37.2999 40 35.2999C42 33.3999 43.2 30.6999 43.2 27.6999C43.2 24.7999 42 22.0999 40 20.0999C38.1 18.1999 35.4 16.9999 32.4 16.9999H13.2C11.5 16.9999 10 15.4999 10 13.7999C10 11.9999 11.5 10.5999 13.2 10.5999H32.4C37.1 10.5999 41.4 12.4999 44.5 15.5999C47.6 18.6999 49.6 22.9999 49.6 27.6999C49.6 32.3999 47.6 36.6999 44.5 39.7999C44.1667 40.1999 43.7667 40.5666 43.3 40.8999C44.3667 41.2999 45.4 41.7332 46.4 42.1999C52.3 45.1999 57.5 49.6999 61.1 55.4999V48.3999C61.1 46.6999 62.6 45.1999 64.3 45.1999C66.1 45.1999 67.5 46.6999 67.5 48.3999V63.0999C67.5 64.7999 66.1 66.2999 64.3 66.2999H49.7Z" fill="white"/>
</svg>
